<svg width="13" height="13" viewBox="0 0 13 13" fill="none" xmlns="http://www.w3.org/2000/svg">
<path d="M6.49999 9.20834C6.36171 9.20765 6.22532 9.17618 6.10071 9.11621C5.9761 9.05625 5.8664 8.9693 5.77958 8.86168L3.49916 6.09918C3.36591 5.93287 3.28205 5.73247 3.25715 5.52082C3.23225 5.30917 3.26731 5.09479 3.35833 4.90209C3.43214 4.73462 3.55261 4.59194 3.70533 4.49109C3.85805 4.39024 4.03657 4.33547 4.21958 4.33334H8.78041C8.96341 4.33547 9.14194 4.39024 9.29466 4.49109C9.44738 4.59194 9.56784 4.73462 9.64166 4.90209C9.73268 5.09479 9.76773 5.30917 9.74283 5.52082C9.71793 5.73247 9.63408 5.93287 9.50083 6.09918L7.22041 8.86168C7.13358 8.9693 7.02388 9.05625 6.89928 9.11621C6.77467 9.17618 6.63827 9.20765 6.49999 9.20834Z" fill="#626262"/>
</svg>
