<svg width="181" height="56" viewBox="0 0 181 56" fill="none" xmlns="http://www.w3.org/2000/svg">
<path d="M54.4734 35.24C52.7934 35.24 51.3694 34.816 50.2014 33.968C49.0334 33.12 48.1934 31.904 47.6814 30.32L50.8974 29.096C51.2494 30.12 51.7134 30.872 52.2894 31.352C52.8814 31.832 53.6094 32.072 54.4734 32.072C55.5134 32.072 56.3454 31.736 56.9694 31.064C57.6094 30.392 57.9294 29.496 57.9294 28.376V18.2H61.4094V28.472C61.4094 29.832 61.1214 31.024 60.5454 32.048C59.9694 33.056 59.1614 33.84 58.1214 34.4C57.0814 34.96 55.8654 35.24 54.4734 35.24Z" fill="#190D1F"/>
<path d="M72.3924 35.264C71.1444 35.264 69.9844 35.048 68.9124 34.616C67.8404 34.168 66.8964 33.552 66.0804 32.768C65.2804 31.968 64.6484 31.048 64.1844 30.008C63.7364 28.952 63.5124 27.816 63.5124 26.6C63.5124 25.384 63.7364 24.256 64.1844 23.216C64.6484 22.16 65.2804 21.24 66.0804 20.456C66.8964 19.656 67.8404 19.04 68.9124 18.608C69.9844 18.16 71.1444 17.936 72.3924 17.936C73.6404 17.936 74.8004 18.16 75.8724 18.608C76.9604 19.04 77.9044 19.656 78.7044 20.456C79.5204 21.24 80.1524 22.16 80.6004 23.216C81.0484 24.256 81.2724 25.384 81.2724 26.6C81.2724 27.816 81.0484 28.952 80.6004 30.008C80.1524 31.048 79.5204 31.968 78.7044 32.768C77.9044 33.552 76.9604 34.168 75.8724 34.616C74.8004 35.048 73.6404 35.264 72.3924 35.264ZM72.3924 32.072C73.1604 32.072 73.8644 31.936 74.5044 31.664C75.1444 31.376 75.7044 30.992 76.1844 30.512C76.6644 30.016 77.0404 29.432 77.3124 28.76C77.5844 28.088 77.7204 27.368 77.7204 26.6C77.7204 25.816 77.5844 25.096 77.3124 24.44C77.0404 23.768 76.6644 23.192 76.1844 22.712C75.7044 22.216 75.1444 21.832 74.5044 21.56C73.8644 21.272 73.1604 21.128 72.3924 21.128C71.6404 21.128 70.9444 21.272 70.3044 21.56C69.6644 21.832 69.1044 22.216 68.6244 22.712C68.1444 23.192 67.7684 23.768 67.4964 24.44C67.2244 25.096 67.0884 25.808 67.0884 26.576C67.0884 27.36 67.2244 28.088 67.4964 28.76C67.7684 29.432 68.1444 30.016 68.6244 30.512C69.1044 30.992 69.6644 31.376 70.3044 31.664C70.9444 31.936 71.6404 32.072 72.3924 32.072Z" fill="#190D1F"/>
<path d="M90.8599 35.24C89.3399 35.24 88.0199 34.936 86.8999 34.328C85.7959 33.72 84.9399 32.856 84.3319 31.736C83.7239 30.6 83.4199 29.272 83.4199 27.752V18.2H86.8999V27.752C86.8999 28.616 87.0599 29.376 87.3799 30.032C87.7159 30.672 88.1799 31.168 88.7719 31.52C89.3799 31.856 90.0839 32.024 90.8839 32.024C91.6839 32.024 92.3799 31.856 92.9719 31.52C93.5639 31.168 94.0199 30.672 94.3399 30.032C94.6759 29.376 94.8439 28.616 94.8439 27.752V18.2H98.2999V27.752C98.2999 29.256 97.9959 30.576 97.3879 31.712C96.7799 32.832 95.9159 33.704 94.7959 34.328C93.6919 34.936 92.3799 35.24 90.8599 35.24Z" fill="#190D1F"/>
<path d="M101.074 35V18.2H109.282C110.418 18.2 111.418 18.424 112.282 18.872C113.162 19.304 113.842 19.912 114.322 20.696C114.818 21.48 115.066 22.384 115.066 23.408C115.066 24.48 114.77 25.424 114.178 26.24C113.586 27.056 112.794 27.664 111.802 28.064L115.522 35H111.634L108.346 28.568H104.554V35H101.074ZM104.554 25.712H108.97C109.754 25.712 110.378 25.504 110.842 25.088C111.322 24.672 111.562 24.128 111.562 23.456C111.562 22.784 111.322 22.24 110.842 21.824C110.378 21.408 109.754 21.2 108.97 21.2H104.554V25.712Z" fill="#190D1F"/>
<path d="M117.364 35V18.2H120.676L129.028 29.048V18.2H132.292V35H129.22L120.652 23.768V35H117.364Z" fill="#190D1F"/>
<path d="M135.34 35V18.2H148.252V21.224H138.82V25.064H145.036V27.992H138.82V31.976H148.348V35H135.34Z" fill="#190D1F"/>
<path d="M156.017 35V28.568L149.153 18.2H153.161L157.865 25.496L162.593 18.2H166.385L159.497 28.592V35H156.017Z" fill="#190D1F"/>
<path d="M163.052 35L169.964 18.2H173.972L180.812 35H177.044L175.34 30.584H168.404L166.676 35H163.052ZM169.484 27.8H174.284L171.884 21.608L169.484 27.8Z" fill="#190D1F"/>
<path fill-rule="evenodd" clip-rule="evenodd" d="M2.79423 42.3209C1.92282 41.6421 1.76665 40.3855 2.44541 39.5141L20.0481 16.9154C20.7269 16.044 21.9835 15.8878 22.8549 16.5666L25.4194 18.5641L5.35875 44.3184L6.25925 45.0199L26.3199 19.2655L33.8841 25.1575L44.4756 11.5599C45.1341 10.7144 46.3534 10.5629 47.1989 11.2215C48.0443 11.88 48.1958 13.0993 47.5373 13.9447L20.3678 48.8254C20.1101 48.4051 19.7739 48.023 19.3619 47.7022C17.5218 46.2688 14.8681 46.5986 13.4348 48.4388C13.0603 48.9196 12.8061 49.456 12.6678 50.0117L2.79423 42.3209Z" fill="#645CBB"/>
<circle cx="16.7667" cy="51.034" r="3.53848" transform="rotate(-52.0841 16.7667 51.034)" fill="#645CBB"/>
<path d="M50.5072 54.1894V47.3217H47.7239V46.2695H54.4784V47.3217H51.6951V54.1894H50.5072Z" fill="#190D1F"/>
<path d="M58.8667 54.1894V46.2695H62.4533C62.9813 46.2695 63.4414 46.3675 63.8336 46.5636C64.2334 46.7597 64.5426 47.0351 64.7614 47.3896C64.9877 47.7365 65.1008 48.1438 65.1008 48.6115C65.1008 49.1319 64.9537 49.5807 64.6595 49.9579C64.3654 50.335 63.9694 50.6066 63.4716 50.7725L65.2366 54.1894H63.9241L62.2836 50.9422H60.0547V54.1894H58.8667ZM60.0547 49.9466H62.3628C62.8304 49.9466 63.2038 49.8297 63.4829 49.5958C63.7695 49.3545 63.9128 49.0301 63.9128 48.6228C63.9128 48.2306 63.7695 47.9138 63.4829 47.6724C63.2038 47.4311 62.8304 47.3104 62.3628 47.3104H60.0547V49.9466Z" fill="#190D1F"/>
<path d="M69.0375 54.1894L72.3073 46.2695H73.7102L76.9461 54.1894H75.6563L74.7398 51.87H71.1985L70.2707 54.1894H69.0375ZM71.5832 50.8856H74.3551L72.9748 47.4009L71.5832 50.8856Z" fill="#190D1F"/>
<path d="M82.2859 54.1894L79.0501 46.2695H80.3286L83.01 53.0127L85.7367 46.2695H86.9586L83.6775 54.1894H82.2859Z" fill="#190D1F"/>
<path d="M91.1694 54.1894V46.2695H97.0075V47.3104H92.3574V49.6863H95.4122V50.6933H92.3574V53.1485H97.0528V54.1894H91.1694Z" fill="#190D1F"/>
<path d="M101.668 54.1894V46.2695H102.856V53.1371H107.416V54.1894H101.668Z" fill="#190D1F"/>
</svg>
