<svg width="18" height="10" viewBox="0 0 18 10" fill="none" xmlns="http://www.w3.org/2000/svg">
<path d="M1.05114 0.601861C1.28597 0.367946 1.60409 0.236877 1.93555 0.237477C2.267 0.238077 2.58465 0.370296 2.81863 0.605059L8.99493 6.80375L15.1936 0.627453C15.4298 0.400183 15.7458 0.274761 16.0735 0.278202C16.4012 0.281643 16.7145 0.413672 16.9459 0.645851C17.1772 0.87803 17.3081 1.19178 17.3103 1.51953C17.3126 1.84728 17.186 2.16281 16.9579 2.39815L9.87388 9.45659C9.63904 9.69051 9.32092 9.82157 8.98947 9.82097C8.65801 9.82037 8.34037 9.68816 8.10638 9.45339L1.04794 2.36936C0.814023 2.13452 0.682954 1.8164 0.683554 1.48495C0.684154 1.15349 0.816373 0.835846 1.05114 0.601861Z" fill="black"/>
</svg>
